<?xml version="1.0" encoding="UTF-8"?>
<svg width="105px" height="34px" viewBox="0 0 105 34" version="1.1" xmlns="http://www.w3.org/2000/svg" xmlns:xlink="http://www.w3.org/1999/xlink">
    <!-- Generator: Sketch 62 (91390) - https://sketch.com -->
    <title>carrd</title>
    <desc>Created with Sketch.</desc>
    <g id="Page-1" stroke="none" stroke-width="1" fill="none" fill-rule="evenodd">
        <g id="Outreach-Page" transform="translate(-355.000000, -2071.000000)" fill="#FFFFFF">
            <g id="carrd" transform="translate(355.000000, 2071.000000)">
                <path d="M100.684964,26.638918 L100.684964,24.5477687 C100.107962,25.3609934 99.4302745,25.9689757 98.6441572,26.3639706 C97.8619125,26.7628379 97.0680503,26.9603354 96.2741881,26.9603354 C94.6516112,26.9603354 93.2652567,26.3020106 92.1073796,24.9814886 C90.953375,23.6609665 90.3725002,21.8215297 90.3725002,19.463178 C90.3725002,17.0506114 90.9340125,15.2150471 92.0609096,13.956485 C93.1839342,12.7017955 94.6090137,12.0705782 96.3245306,12.0705782 C97.9006375,12.0705782 99.263757,12.7327754 100.417762,14.05717 L100.417762,6.97437001 L104.15085,6.97437001 L104.15085,26.6350455 L100.684964,26.638918 L100.684964,26.638918 Z M99.5541944,16.0360168 C98.9694471,15.315732 98.2220549,14.9555897 97.3081452,14.9555897 C96.421343,14.9555897 95.6816958,15.3118595 95.0814585,16.0205268 C94.4850937,16.7330665 94.1830388,17.7941311 94.1830388,19.2075931 C94.1830388,20.7294851 94.3921538,21.8292747 94.8065111,22.506962 C95.4106209,23.4905766 96.2509531,23.9823839 97.3313802,23.9823839 C98.1910749,23.9823839 98.9229771,23.6144966 99.5232144,22.8748493 C100.127324,22.1390746 100.425545,21.0354125 100.425545,19.5677355 C100.429379,17.9335411 100.138942,16.7563015 99.5541944,16.0360168 Z M88.3278209,15.4512695 C87.8050336,15.4512695 87.3635688,15.5984244 86.9995539,15.8888618 C86.635539,16.1792992 86.3489741,16.705959 86.1437317,17.4649688 C85.9346168,18.2239785 85.8300593,19.8155754 85.8300593,22.2397596 L85.8300593,26.638918 L82.0969707,26.638918 L82.0969707,12.3958681 L85.5628569,12.3958681 L85.5628569,14.4211848 C86.1553492,13.4646777 86.689754,12.8334604 87.1621988,12.5314055 C87.6346437,12.2293506 88.172921,12.0744507 88.7770308,12.0744507 C89.6289805,12.0744507 90.4460777,12.3106731 91.2360674,12.7869904 L90.0820628,16.0708693 C89.4508455,15.6565119 88.8660982,15.4512695 88.3278209,15.4512695 Z M78.7395144,15.4512695 C78.216727,15.4512695 77.7752622,15.5984244 77.4112473,15.8888618 C77.0472325,16.1792992 76.7606676,16.705959 76.5554251,17.4649688 C76.3463102,18.2239785 76.2417527,19.8155754 76.2417527,22.2397596 L76.2417527,26.638918 L72.5086641,26.638918 L72.5086641,12.3958681 L75.9745503,12.3958681 L75.9745503,14.4211848 C76.5670426,13.4646777 77.1014474,12.8334604 77.5738923,12.5314055 C78.0463371,12.2293506 78.5846144,12.0744507 79.1887242,12.0744507 C80.0406739,12.0744507 80.8577711,12.3106731 81.6477608,12.7869904 L80.4937562,16.0708693 C79.862539,15.6565119 79.2777917,15.4512695 78.7395144,15.4512695 Z M67.4899059,25.5236384 C67.4279459,25.2990335 67.3853484,25.1518785 67.3582409,25.0821735 C66.7192787,25.7095183 66.0377189,26.1780906 65.3135617,26.491763 C64.5855319,26.8054354 63.8110322,26.9603354 62.9900625,26.9603354 C61.5378755,26.9603354 60.3916159,26.561468 59.5551562,25.7676058 C58.7186965,24.9737436 58.3004667,23.9668939 58.3004667,22.7509294 C58.3004667,21.9454497 58.4902191,21.2290374 58.8735965,20.5978201 C59.2531013,19.9666029 59.7875061,19.486413 60.4729384,19.1495057 C61.1583706,18.8125983 62.1497303,18.5221609 63.4431448,18.2704485 C65.1896417,17.9412861 66.3978613,17.6314862 67.071676,17.3449213 L67.071676,16.9692889 C67.071676,16.2451317 66.8935411,15.7300894 66.5411437,15.4202895 C66.1848738,15.1104896 65.5188041,14.9594622 64.5351894,14.9594622 C63.8691197,14.9594622 63.3540774,15.0911271 62.9823175,15.354457 C62.6105576,15.6177869 62.3085027,16.0824868 62.0800253,16.7408115 L58.691589,16.1250842 C59.0710939,14.7464747 59.7294187,13.7280076 60.6588183,13.0658103 C61.588218,12.4036131 62.9707,12.0744507 64.8023918,12.0744507 C66.4675662,12.0744507 67.7067658,12.2719481 68.523863,12.6708155 C69.3370877,13.0696828 69.91409,13.5731076 70.2432524,14.1849624 C70.5762873,14.7968172 70.7428047,15.9198418 70.7428047,17.5579087 L70.7040797,21.9570672 C70.7040797,23.2078842 70.7621672,24.1334114 70.8822147,24.7259037 C71.0022621,25.3222684 71.226867,25.9573582 71.5521569,26.638918 L67.8577932,26.638918 C67.7532358,26.3872056 67.6331883,26.0154457 67.4899059,25.5236384 Z M67.0678035,19.7962129 C66.5876137,19.9588579 65.8324765,20.1486103 64.7946468,20.3732152 C63.7568172,20.5978201 63.07913,20.8146801 62.7615851,21.03154 C62.2736502,21.3800649 62.0296828,21.8215297 62.0296828,22.359807 C62.0296828,22.8864668 62.2233078,23.3434217 62.6144301,23.726799 C63.0055525,24.1101764 63.5012323,24.3038013 64.1014696,24.3038013 C64.7752843,24.3038013 65.4181191,24.0791964 66.0261014,23.6338591 C66.4791837,23.2930792 66.7734936,22.8787218 66.9167761,22.3869145 C67.0135885,22.0654971 67.063931,21.4536423 67.063931,20.5513502 L67.0678035,19.7962129 L67.0678035,19.7962129 Z M49.7422447,23.5796441 C50.7878193,23.5796441 51.686239,23.2427367 52.4375038,22.5727944 C53.1887685,21.9028522 53.7309183,20.84566 54.0600807,19.4089631 L57.8744918,20.6288001 C57.2897445,22.7741644 56.3177474,24.3696338 54.9585004,25.4113359 C53.5992533,26.453038 51.872119,26.9719529 49.7848422,26.9719529 C47.1980131,26.9719529 45.0720114,26.0812782 43.406837,24.2960563 C41.7416626,22.5108345 40.9090754,20.0750328 40.9090754,16.9809064 C40.9090754,13.7086451 41.7455351,11.168286 43.4184545,9.35595666 C45.0913739,7.5436273 47.2948256,6.64133513 50.0210646,6.64133513 C52.4026513,6.64133513 54.3389006,7.35387487 55.82594,8.77508186 C56.7127422,9.61541406 57.3749395,10.8236336 57.8202768,12.3958681 L53.9284157,13.3330127 C53.6960658,12.3145456 53.215876,11.5090659 52.4878462,10.9204461 C51.755944,10.3318263 50.8691418,10.0336439 49.8235672,10.0336439 C48.3791252,10.0336439 47.2096306,10.5564312 46.3112109,11.6020059 C45.4127913,12.6475805 44.9635814,14.3437349 44.9635814,16.6865965 C44.9635814,19.1727406 45.4050463,20.9424725 46.2918485,21.9957921 C47.1747781,23.0529843 48.3249102,23.5796441 49.7422447,23.5796441 Z" id="Shape" fill-rule="nonzero"></path>
                <path d="M25.055066,23.2001392 L14.9826971,28.03689 C14.9207372,28.06787 14.8510322,28.08336 14.7813272,28.08336 C14.6961322,28.08336 14.6109373,28.060125 14.5334873,28.013655 C14.3979499,27.92846 14.3166274,27.7813051 14.3166274,27.6186601 L14.3166274,22.8283793 L8.87576683,20.5513502 C8.70150439,20.4777727 8.58920193,20.3112552 8.58920193,20.1215028 L8.58920193,7.5436273 C8.58920193,7.38485486 8.6705244,7.23382741 8.80606185,7.14863244 C8.9415993,7.06343748 9.11198924,7.05569248 9.25527169,7.12152495 L19.7265079,12.1480282 L24.6561987,9.7819315 C24.7994811,9.71222653 24.9698711,9.72384402 25.1054085,9.80903899 C25.240946,9.89423396 25.3222684,10.0413889 25.3222684,10.2040339 L25.3222684,22.7819094 C25.318396,22.9600443 25.217711,23.1226892 25.055066,23.2001392 Z M9.5186016,8.28327454 L9.5186016,19.8117029 L14.3166274,21.8215297 L14.3166274,19.5057755 L11.299951,18.289811 C11.0637285,18.1929985 10.9475536,17.9219236 11.0404936,17.6857012 C11.137306,17.4456063 11.4083809,17.3333038 11.6446033,17.4262438 L14.3166274,18.5027984 L14.3166274,16.6014016 L11.299951,15.385437 C11.0637285,15.2886245 10.9475536,15.0175496 11.0404936,14.7813272 C11.137306,14.5412323 11.4083809,14.4289298 11.6446033,14.5218698 L14.3166274,15.5984244 L14.3166274,15.0446571 C14.3166274,14.8665222 14.4173123,14.7038772 14.5799573,14.6264273 L15.269262,14.2933924 L11.276716,12.4771905 C11.0443661,12.3726331 10.9398086,12.0938132 11.0443661,11.8614633 C11.1489235,11.6291133 11.4277434,11.5245559 11.6600933,11.6291133 L16.3574342,13.7706051 L18.6460808,12.6708155 L9.5186016,8.28327454 Z M24.3889963,10.9436811 L15.2460271,15.3350945 L15.2460271,16.2761117 C15.2460271,16.2761117 15.2460271,16.2761117 15.2460271,16.2799842 L15.2460271,19.1804856 C15.2460271,19.1804856 15.2460271,19.1804856 15.2460271,19.1843581 L15.2460271,26.8828854 L24.3889963,22.4875995 L24.3889963,10.9436811 Z M16.9925239,16.9537989 L22.2320146,14.4211848 C22.4643645,14.3088824 22.7393119,14.4056949 22.8516143,14.6380448 C22.9639168,14.8703947 22.8671043,15.1492146 22.6347544,15.2576445 L17.3952638,17.7902586 C17.3294313,17.8212386 17.2597263,17.8367286 17.1938939,17.8367286 C17.0196314,17.8367286 16.8569865,17.7399162 16.775664,17.5733987 C16.667234,17.3449213 16.7640465,17.0661014 16.9925239,16.9537989 Z M16.9925239,19.8581729 L22.2320146,17.3255588 C22.4643645,17.2132563 22.7393119,17.3100688 22.8516143,17.5424187 C22.9639168,17.7747686 22.8671043,18.0535885 22.6347544,18.1620185 L17.3952638,20.6946326 C17.3294313,20.7256126 17.2597263,20.7411026 17.1938939,20.7411026 C17.0196314,20.7411026 16.8569865,20.6442901 16.775664,20.4777727 C16.667234,20.2454228 16.7640465,19.9704754 16.9925239,19.8581729 Z M16.9925239,22.7586744 L22.2320146,20.2260603 C22.4643645,20.1137578 22.7393119,20.2105703 22.8516143,20.4429202 C22.9639168,20.6752701 22.8671043,20.95409 22.6347544,21.06252 L17.3952638,23.5951341 C17.3294313,23.6261141 17.2597263,23.641604 17.1938939,23.641604 C17.0196314,23.641604 16.8569865,23.5447916 16.775664,23.3782741 C16.667234,23.1497967 16.7640465,22.8709768 16.9925239,22.7586744 Z M16.798899,33.5861805 C7.52813731,33.5861805 0.0154899945,26.0735332 0.0154899945,16.806644 C0.0154899945,7.53975481 7.52813731,0.0271074903 16.798899,0.0271074903 C26.0696607,0.0271074903 33.582308,7.53975481 33.582308,16.806644 C33.582308,26.0735332 26.0696607,33.5861805 16.798899,33.5861805 Z" id="Shape"></path>
            </g>
        </g>
    </g>
</svg>