<?xml version="1.0" encoding="UTF-8"?>
<svg width="166px" height="34px" viewBox="0 0 166 34" version="1.1" xmlns="http://www.w3.org/2000/svg" xmlns:xlink="http://www.w3.org/1999/xlink">
    <!-- Generator: Sketch 62 (91390) - https://sketch.com -->
    <title>godaddy</title>
    <desc>Created with Sketch.</desc>
    <g id="Page-1" stroke="none" stroke-width="1" fill="none" fill-rule="evenodd">
        <g id="Outreach-Page" transform="translate(-500.000000, -2071.000000)" fill="#FFFFFF" fill-rule="nonzero">
            <g id="godaddy" transform="translate(500.000000, 2071.000000)">
                <path d="M32.9367809,1.55386594 C28.9685219,-0.92548669 23.744403,-0.33477931 19.0850973,2.59286358 C14.4403571,-0.33477931 9.21300132,-0.92548669 5.24959754,1.55386594 C-1.0199926,5.47195519 -1.78224789,15.562532 3.54868395,24.092994 C7.47810183,30.3820046 13.623077,34.0670477 19.0931892,33.9990759 C24.5633014,34.0670477 30.7082766,30.3820046 34.6376944,24.092994 C39.9621528,15.562532 39.206371,5.47195519 32.9367809,1.55386594 Z M6.43101231,22.291741 C5.33179301,20.5491759 4.50243737,18.650388 3.97108019,16.6597912 C3.49899217,14.9318458 3.31849303,13.1372467 3.43701598,11.3498982 C3.67491731,8.19730103 4.95828979,5.74222404 7.04923209,4.43619429 C9.14017439,3.13016455 11.9043613,3.0508641 14.8481879,4.21933186 C15.2900047,4.39573488 15.7269663,4.59965031 16.1606912,4.82460463 C14.5248153,6.31621899 13.102361,8.02621378 11.933492,9.9063065 C8.69673926,15.085111 7.70952966,20.8481493 8.83915638,25.4427199 C7.93843092,24.4710557 7.13209089,23.4159858 6.43101231,22.291741 Z M34.2169166,16.6581728 C33.6848562,18.6485237 32.8555455,20.5472088 31.7569845,22.2901227 C31.0553106,23.4159678 30.2490264,24.4731322 29.3488404,25.447575 C30.3587073,21.3288071 29.6725157,16.2827095 27.1963998,11.5505769 C27.1164257,11.392968 26.9734324,11.2766112 26.8028578,11.2303433 C26.6322832,11.1840753 26.4500924,11.2122266 26.3014377,11.3078205 L18.5817823,16.1305821 C18.4395755,16.2193136 18.3385042,16.3609671 18.3008579,16.5243035 C18.2632116,16.68764 18.2920825,16.859243 18.3811036,17.0012686 L19.5139671,18.8122318 C19.6023918,18.9543298 19.743759,19.0553694 19.9068321,19.0930251 C20.0699051,19.1306807 20.2412604,19.1018525 20.3830352,19.0129105 L25.387055,15.8862073 C25.5488926,16.3717202 25.7107303,16.8572331 25.8321085,17.342746 C26.3041126,19.0685068 26.4851543,20.8608744 26.3677911,22.6461655 C26.1298898,25.7971443 24.8465173,28.2522213 22.755575,29.5598694 C21.6770805,30.2192687 20.4413107,30.5769768 19.1773448,30.5956303 C19.1498324,30.5956303 19.1207016,30.5956303 19.0931892,30.5956303 L19.0171255,30.5956303 C17.7531005,30.5773728 16.5172283,30.219635 15.4388953,29.5598694 C13.3463346,28.2522213 12.0629622,25.7971443 11.8250608,22.6461655 C11.7072643,20.8588294 11.8877514,19.0643504 12.359125,17.3362725 C13.4437317,13.3382743 15.6857631,9.75001057 18.8034998,7.02235977 C20.1479882,5.84222244 21.6793577,4.89386715 23.3349537,4.2160951 C26.2706885,3.04762735 29.0397305,3.12530942 31.1322912,4.43295754 C33.2248519,5.74060567 34.506606,8.19406428 34.7445073,11.3466615 C34.8645608,13.1341745 34.6862611,14.9292045 34.2169166,16.6581728 Z M74.0645801,12.8922109 C70.0056921,12.8922109 66.7252432,16.0609919 66.7252432,20.0923675 C66.7252432,24.0962307 70.0056921,27.2132236 74.0645801,27.2132236 C78.1509805,27.2132236 81.4314295,24.1010858 81.4314295,20.0923675 C81.4314295,16.0626103 78.1558356,12.8938293 74.0645801,12.8938293 L74.0645801,12.8922109 Z M74.0645801,23.4488802 C72.193737,23.4488802 70.7695658,21.9356982 70.7695658,20.0648551 C70.7695658,18.194012 72.193737,16.6581728 74.0645801,16.6581728 C75.9629356,16.6581728 77.3871069,18.1988671 77.3871069,20.0697102 C77.3871069,21.9405534 75.9629356,23.4553537 74.0645801,23.4553537 L74.0645801,23.4488802 Z M90.583348,7.3620062 L83.1145409,7.3620062 C82.951505,7.35909501 82.7942466,7.42259678 82.6790944,7.53805436 C82.5639423,7.65351194 82.5008573,7.81093802 82.504413,7.97396509 L82.504413,26.1823179 C82.4926591,26.3508513 82.5518769,26.5166274 82.6677505,26.6395703 C82.7836242,26.7625132 82.9456074,26.831433 83.1145409,26.8297334 L90.583348,26.8297334 C96.560012,26.8297334 100.712766,22.854936 100.712766,17.0724772 C100.712766,11.254414 96.560012,7.3620062 90.583348,7.3620062 Z M90.759751,22.9844061 L86.6733506,22.9844061 L86.6733506,11.1977709 L90.759751,11.1977709 C94.0677123,11.1977709 96.3480047,13.6722684 96.3480047,17.0643853 C96.3480047,20.399859 94.0677123,22.9844061 90.759751,22.9844061 Z M115.579171,13.283858 L112.771288,13.283858 C112.44947,13.3093061 112.198401,13.5729277 112.188673,13.8956043 L112.188673,14.7290681 C111.549414,13.6722684 110.104204,12.8938293 108.304569,12.8938293 C104.802403,12.8938293 101.521954,15.6450692 101.521954,20.0389611 C101.521954,24.4085774 104.773272,27.2099869 108.277057,27.2099869 C110.083165,27.2099869 111.557506,26.4331662 112.196765,25.3763664 L112.196765,26.2373427 C112.198524,26.5586445 112.458084,26.8189259 112.77938,26.8215766 L115.587263,26.8215766 C115.743281,26.8251543 115.893971,26.7647509 116.004321,26.6544007 C116.114671,26.5440504 116.175075,26.3933604 116.171497,26.2373427 L116.171497,13.8956043 C116.176304,13.7352996 116.11608,13.5798639 116.00452,13.4646463 C115.89296,13.3494288 115.739548,13.284223 115.579171,13.283858 Z M109.047404,23.4796293 C107.18789,23.4796293 105.791231,22.0506029 105.791231,20.0680919 C105.791231,18.0855808 107.18789,16.6581728 109.047404,16.6581728 C110.906919,16.6581728 112.303578,18.0839624 112.303578,20.0664735 C112.303578,22.0489846 110.908537,23.4780109 109.047404,23.4780109 L109.047404,23.4796293 Z M131.340539,7.36221881 L128.532656,7.36221881 C128.373894,7.35743127 128.219862,7.41660629 128.105141,7.52645792 C127.990421,7.63630954 127.924626,7.78763283 127.922528,7.94645269 L127.922528,14.6740434 C127.275178,13.6722684 125.808929,12.8938293 123.975308,12.8938293 C120.499036,12.8938293 117.27523,15.6450692 117.27523,20.0389611 C117.27523,24.4085774 120.526548,27.2099869 124.030333,27.2099869 C125.836441,27.2099869 127.199114,26.4331662 127.95004,25.3763664 L127.95004,26.2373427 C127.950924,26.5590086 128.210994,26.8198006 128.532656,26.8215766 L131.340539,26.8215766 C131.496693,26.8256229 131.647658,26.7653701 131.758112,26.6549157 C131.868566,26.5444612 131.928819,26.3934964 131.924773,26.2373427 L131.924773,7.94968944 C131.929726,7.7929823 131.869874,7.6411614 131.759316,7.52999156 C131.648759,7.41882171 131.497271,7.35813185 131.340539,7.36221881 Z M124.808772,23.5136152 C122.957349,23.5136152 121.572019,22.0700235 121.572019,20.0664735 C121.572019,18.0629235 122.962204,16.6193318 124.808772,16.6193318 C126.655339,16.6193318 128.045525,18.0629235 128.045525,20.0664735 C128.045525,22.0700235 126.661813,23.5136152 124.808772,23.5136152 Z M147.09867,7.36221881 L144.295642,7.36221881 C144.136728,7.35743347 143.982529,7.41655912 143.867553,7.52636426 C143.752577,7.6361694 143.686423,7.78748645 143.683896,7.94645269 L143.683896,14.6740434 C143.044637,13.6722684 141.570296,12.8938293 139.736676,12.8938293 C136.260403,12.8938293 133.036597,15.6450692 133.036597,20.0389611 C133.036597,24.4085774 136.289534,27.2099869 139.791701,27.2099869 C141.599427,27.2099869 142.960482,26.4331662 143.711408,25.3763664 L143.711408,26.2373427 C143.713177,26.5592706 143.973714,26.8198077 144.295642,26.8215766 L147.09867,26.8215766 C147.254683,26.8256431 147.405498,26.7653424 147.5157,26.6548339 C147.625903,26.5443254 147.685785,26.3933442 147.681285,26.2373427 L147.681285,7.94968944 C147.686695,7.79313546 147.627215,7.64129652 147.516909,7.53007141 C147.406604,7.41884631 147.255263,7.35810878 147.09867,7.36221881 Z M140.566903,23.5136152 C138.713862,23.5136152 137.33015,22.0700235 137.33015,20.0664735 C137.33015,18.0629235 138.720335,16.6193318 140.566903,16.6193318 C142.41347,16.6193318 143.803656,18.0629235 143.803656,20.0664735 C143.803656,22.0700235 142.423181,23.5136152 140.571758,23.5136152 L140.566903,23.5136152 Z M162.473246,14.2306082 L158.283269,28.6001722 C157.474081,31.1572069 155.669591,32.6865726 152.861708,32.6865726 C151.584809,32.6865726 150.422815,32.426014 149.511669,31.9048968 C148.980842,31.6022604 148.540643,31.3255181 148.540643,30.8820829 C148.540643,30.6069589 148.629654,30.4645418 148.791492,30.20722 L149.623337,28.9610701 C149.858002,28.6131192 150.031168,28.4998329 150.283635,28.4998329 C150.483697,28.5047501 150.677217,28.5720861 150.837119,28.6924197 C151.359855,29.0306603 151.845368,29.3219681 152.584966,29.3219681 C153.449179,29.3219681 154.109476,29.0452257 154.465519,28.0159383 L154.824799,26.8231949 L153.12874,26.8231949 C152.711199,26.8231949 152.48139,26.573965 152.377814,26.2389611 L148.628036,14.2306082 C148.488855,13.7580423 148.616707,13.2854664 149.31099,13.2854664 L152.264527,13.2854664 C152.625425,13.2854664 152.877892,13.408473 153.036493,13.9247351 L155.805535,23.594534 L158.394937,13.9247351 C158.477474,13.5913495 158.70081,13.2854664 159.145864,13.2854664 L161.947273,13.2854664 C162.49914,13.283858 162.665832,13.6722684 162.473246,14.2306082 L162.473246,14.2306082 Z M65.6669743,18.5047403 L65.6669743,26.1806995 C65.6694739,26.3497519 65.603486,26.5126585 65.4839333,26.6322113 C65.3643805,26.7517641 65.2014739,26.8177519 65.0324215,26.815103 L62.7149065,26.815103 C62.5457194,26.8182082 62.3825459,26.752367 62.2628924,26.6327135 C62.1432389,26.5130601 62.0773978,26.3498866 62.0805029,26.1806995 L62.0805029,24.1658209 C60.6093988,26.023717 58.0507457,27.1938031 55.1570887,27.1938031 C49.7225808,27.1938031 45.4759611,23.1057844 45.4759611,17.2861028 C45.4759611,11.2382303 50.0608215,7.06929268 55.8529906,7.06929268 C60.128741,7.06929268 63.5467519,8.90776827 65.064789,12.6057583 C65.1073107,12.7034716 65.1309243,12.8083598 65.1343792,12.9148682 C65.1343792,13.0896529 65.0194745,13.2223597 64.6488663,13.3502115 L61.9429409,14.3924459 C61.7797129,14.4601241 61.5968215,14.4630179 61.431534,14.4005377 C61.2866342,14.3149765 61.1731405,14.1850262 61.1078587,14.0299295 C60.1368329,12.1833621 58.4084069,10.9291204 55.7477961,10.9291204 C52.2974176,10.9291204 49.8261569,13.6237171 49.8261569,17.1177917 C49.8261569,20.5050535 51.9300462,23.2902793 55.8465171,23.2902793 C57.9067102,23.2902793 59.5493623,22.3192534 60.3148543,21.2527434 L57.8711059,21.2527434 C57.7020535,21.2553922 57.5391469,21.1894044 57.4195942,21.0698516 C57.3000414,20.9502989 57.2340536,20.7873922 57.2367024,20.6183398 L57.2367024,18.5322527 C57.2340536,18.3632003 57.3000414,18.2002937 57.4195942,18.0807409 C57.5391469,17.9611881 57.7020535,17.8952003 57.8711059,17.8978491 L65.0324215,17.8978491 C65.1983424,17.8893827 65.3604181,17.9496729 65.4804689,18.0645174 C65.6005196,18.1793619 65.6679317,18.3386071 65.6669743,18.5047403 L65.6669743,18.5047403 Z M162.549309,10.4419891 L162.549309,10.2558758 C162.549129,10.2428243 162.553735,10.2301587 162.562256,10.2202715 C162.571647,10.2119892 162.583721,10.2073897 162.596242,10.2073245 L163.779275,10.2073245 C163.791884,10.2068971 163.804133,10.2115636 163.813261,10.2202715 C163.821783,10.2301587 163.826389,10.2428243 163.826218,10.2558758 L163.826218,10.4419891 C163.826143,10.4545104 163.821544,10.4665841 163.813261,10.475975 C163.804133,10.484683 163.791884,10.4893494 163.779275,10.488922 L163.347169,10.488922 L163.347169,11.6557714 C163.346328,11.6822295 163.325076,11.7034821 163.298618,11.7043227 L163.075282,11.7043227 C163.062918,11.7042655 163.051157,11.6989731 163.042914,11.6897573 C163.033613,11.680899 163.028349,11.6686158 163.028349,11.6557714 L163.028349,10.488922 L162.596242,10.488922 C162.583519,10.4899052 162.571001,10.4852772 162.561978,10.4762536 C162.552954,10.4672299 162.548326,10.4547125 162.549309,10.4419891 L162.549309,10.4419891 Z M164.617594,10.2494023 L164.94127,10.9987106 L165.264945,10.2494023 C165.269898,10.2361248 165.278973,10.224782 165.290839,10.2170348 C165.304314,10.2100595 165.319374,10.2067129 165.334535,10.2073245 L165.709998,10.2073245 C165.722424,10.2063916 165.734657,10.2108079 165.743621,10.219463 C165.752585,10.228118 165.757428,10.2401884 165.756931,10.252639 L165.756931,11.6573898 C165.757864,11.6698154 165.753448,11.6820482 165.744793,11.6910123 C165.736138,11.6999765 165.724068,11.7048191 165.711617,11.7043227 L165.501228,11.7043227 C165.48862,11.7047501 165.47637,11.7000836 165.467242,11.6913757 C165.458001,11.6825934 165.453239,11.6700948 165.454295,11.6573898 L165.454295,10.5973532 L165.106344,11.3677004 C165.101281,11.3822433 165.092324,11.3951183 165.08045,11.404923 C165.067119,11.4122887 165.05195,11.4156598 165.036754,11.4146333 L164.865206,11.4146333 C164.850544,11.4154385 164.835954,11.4120716 164.823128,11.404923 C164.810756,11.3955871 164.801685,11.3825473 164.797234,11.3677004 L164.450902,10.5973532 L164.450902,11.6573898 C164.450836,11.6699111 164.446237,11.6819847 164.437955,11.6913757 C164.428986,11.6993021 164.417548,11.7038771 164.405587,11.7043227 L164.190343,11.7043227 C164.178747,11.7044285 164.167622,11.6997441 164.159594,11.6913757 C164.150353,11.6825934 164.145591,11.6700948 164.146647,11.6573898 L164.146647,10.252639 C164.14615,10.2401884 164.150993,10.228118 164.159957,10.219463 C164.168921,10.2108079 164.181154,10.2063916 164.19358,10.2073245 L164.557714,10.2073245 C164.572339,10.2069198 164.586824,10.2102625 164.599792,10.2170348 C164.60867,10.2259213 164.614844,10.2371455 164.617594,10.2494023 L164.617594,10.2494023 Z" id="Shape"></path>
            </g>
        </g>
    </g>
</svg>