<?xml version="1.0" encoding="UTF-8"?>
<svg width="235px" height="34px" viewBox="0 0 235 34" version="1.1" xmlns="http://www.w3.org/2000/svg" xmlns:xlink="http://www.w3.org/1999/xlink">
    <!-- Generator: Sketch 62 (91390) - https://sketch.com -->
    <title>squarespace</title>
    <desc>Created with Sketch.</desc>
    <defs>
        <polygon id="path-1" points="0.147002778 0.132127778 11.2096111 0.132127778 11.2096111 16.9602389 0.147002778 16.9602389"></polygon>
    </defs>
    <g id="Page-1" stroke="none" stroke-width="1" fill="none" fill-rule="evenodd">
        <g id="Outreach-Page" transform="translate(-706.000000, -2071.000000)">
            <g id="squarespace" transform="translate(706.000000, 2071.000000)">
                <g id="Group">
                    <path d="M8.71819783,18 L21.884058,4.67292937 C22.7785667,3.7674678 23.9687537,3.26958213 25.2374146,3.26958213 C26.5051413,3.26958213 27.6953283,3.76699497 28.5889028,4.67245657 L29.6146684,5.7107822 L31.6666667,3.63365807 L30.6409011,2.59533241 C29.1998779,1.13666453 27.281005,0.333333333 25.2364804,0.333333333 C23.19289,0.33380616 21.2735499,1.13713735 19.8325268,2.59627806 L6.66666667,15.9228759 L8.71819783,18 Z" id="Fill-1" fill="#FFFFFF" fill-rule="nonzero"></path>
                    <path d="M26.3333333,9.09974607 L24.2716272,7.02569893 L11.0439494,20.3330271 C9.18639577,22.2016997 6.1639993,22.2021718 4.306915,20.3339713 C2.44936137,18.4652988 2.44936137,15.4243387 4.306915,13.5556661 L15.7211549,2.07357501 L13.6594487,0 L2.24567813,11.4820911 C-0.748559377,14.4942516 -0.748559377,19.3958581 2.24567813,22.4075464 C3.6935187,23.8640534 5.62146973,24.6666667 7.6747282,24.6666667 C9.728456,24.6666667 11.6573457,23.8635813 13.1051862,22.4070742 L26.3333333,9.09974607 Z" id="Fill-3" fill="#FFFFFF" fill-rule="nonzero"></path>
                    <path d="M39.4206267,11.5920248 C37.973249,10.1354898 36.0452893,9.33333333 33.991083,9.33333333 C31.937346,9.33380547 30.0084477,10.135962 28.5606007,11.592969 L15.3333333,24.9000798 L17.3941101,26.9741666 L30.6223161,13.6665837 C32.4803473,11.7978754 35.502288,11.7983475 37.3593803,13.6661116 C38.2576557,14.569777 38.7523173,15.7727757 38.7523173,17.0546209 C38.7523173,18.3369381 38.2576557,19.540409 37.3593803,20.4440744 L25.9455591,31.9263853 L28.0072744,34 L39.4206267,22.5181612 C42.4153467,19.5059432 42.4153467,14.6042428 39.4206267,11.5920248" id="Fill-5" fill="#FFFFFF" fill-rule="nonzero"></path>
                    <path d="M32.9485072,16 L19.782893,29.3270706 C17.9336535,31.1980427 14.9260117,31.1989883 13.0777064,29.3275434 L12.0519599,28.2892178 L10,30.3663419 L11.0257464,31.4046676 C12.4667426,32.8633355 14.3855798,33.6666667 16.4305332,33.6666667 C18.4740854,33.666194 20.3929225,32.8628626 21.8343859,31.4037219 L35,18.0771241 L32.9485072,16 Z" id="Fill-7" fill="#FFFFFF" fill-rule="nonzero"></path>
                    <path d="M53.8250273,20.4701684 C53.9948557,21.3205477 54.392832,21.9862896 55.018024,22.4659663 C55.6427493,22.9465948 56.46483,23.1864332 57.484266,23.1864332 C58.487372,23.1864332 59.2627967,22.9504018 59.811006,22.4778631 C60.3592153,22.0058002 60.6330867,21.3838384 60.6330867,20.6119776 C60.6330867,20.2341369 60.5598363,19.9153042 60.4133363,19.6554792 C60.2663697,19.3956543 60.0620157,19.1753266 59.7998083,18.9940202 C59.536668,18.8136655 59.2128747,18.6594837 58.8270287,18.5338541 C58.4411827,18.4077486 58.0086803,18.2740292 57.5299887,18.13222 L56.2800717,17.7781728 C55.538706,17.5735488 54.8747897,17.3256207 54.2883223,17.0339125 C53.7013887,16.7426801 53.1998353,16.4000539 52.7831963,16.0065095 C52.3665573,15.6129652 52.0497623,15.160413 51.8337447,14.6483771 C51.617727,14.1368171 51.5094847,13.5419798 51.5094847,12.8652929 C51.5094847,12.1567228 51.64852,11.5033535 51.9265903,10.9047093 C52.204194,10.3070168 52.5979717,9.79450507 53.1074563,9.3695533 C53.616941,8.94460157 54.2342013,8.6100651 54.9601703,8.365468 C55.6852063,8.12229853 56.503088,8 57.4142817,8 C59.1279607,8 60.4861197,8.413055 61.4901593,9.23964087 C62.4932657,10.0667026 63.0797327,11.172624 63.2500277,12.5583569 L60.47119,12.7943883 C60.300895,12.0858182 59.961705,11.5347609 59.4522203,11.1412166 C58.9427357,10.7476723 58.2326297,10.5506622 57.3219027,10.5506622 C56.4727613,10.5506622 55.808845,10.7514792 55.33062,11.1531134 C54.8514617,11.5547475 54.612116,12.0705903 54.612116,12.7001661 C54.612116,13.062303 54.6821,13.3649562 54.8211353,13.6090774 C54.9601703,13.8536745 55.160325,14.0659125 55.422999,14.246743 C55.6852063,14.4280494 56.0057337,14.5893692 56.3836483,14.7307026 C56.7620293,14.8725118 57.1903323,15.0228866 57.669024,15.1799237 L58.8503567,15.5577643 C59.590789,15.7937957 60.2589047,16.0417239 60.8528367,16.3015488 C61.4472357,16.5613737 61.9529877,16.8725926 62.369627,17.2347295 C62.7867323,17.5968664 63.10726,18.029908 63.3307427,18.5338541 C63.554692,19.0378002 63.6666667,19.6597621 63.6666667,20.3997396 C63.6666667,21.1873042 63.512235,21.907771 63.203838,22.5606644 C62.894508,23.2145095 62.462939,23.7693737 61.9067983,24.2257329 C61.351124,24.6825679 60.6914067,25.0370909 59.926713,25.2883502 C59.162486,25.5400853 58.317544,25.6666667 57.3914203,25.6666667 C55.6777413,25.6666667 54.249598,25.2574186 53.1074563,24.4384467 C51.9648483,23.6194747 51.262674,22.3836409 51,20.7299933 L53.8250273,20.4701684 Z" id="Fill-9" fill="#FFFFFF" fill-rule="nonzero"></path>
                    <path d="M75.6202603,10.8722425 C74.7872767,10.8722425 74.042442,11.0290296 73.386689,11.3416565 C72.7304697,11.6547571 72.174992,12.0886453 71.7202557,12.6437948 C71.2645867,13.1994181 70.9171213,13.8568819 70.6778603,14.6147652 C70.4390653,15.3740696 70.319668,16.199215 70.319668,17.0906753 C70.319668,17.9826093 70.4427967,18.8115442 70.6899863,19.5784274 C70.9362437,20.3448369 71.2879063,21.0094059 71.743109,21.5730816 C72.1978453,22.13581 72.7537893,22.5777507 73.410009,22.8989038 C74.0652953,23.2191095 74.81013,23.3792123 75.64358,23.3792123 C76.47703,23.3792123 77.2213983,23.227162 77.8776177,22.922114 C78.5329043,22.6170659 79.0888483,22.1907565 79.544051,21.6427121 C79.9992537,21.0956151 80.35045,20.4343619 80.5971737,19.6603735 C80.8438973,18.8859115 80.9674923,18.0370821 80.9674923,17.1143592 C80.9674923,16.2067939 80.8438973,15.3698065 80.5971737,14.6033969 C80.35045,13.8374611 79.9992537,13.1799973 79.544051,12.6324266 C79.0888483,12.0853295 78.529173,11.6547571 77.8654913,11.3416565 C77.202276,11.0290296 76.4537103,10.8722425 75.6202603,10.8722425 M75.64358,8.33333333 C76.8935217,8.33333333 78.035726,8.5488564 79.0697263,8.97990257 C80.10326,9.4109487 80.9828833,10.0139396 81.7085957,10.7898227 C82.4333753,11.5661795 82.9963153,12.4945865 83.398349,13.5759913 C83.7994497,14.6573961 84,15.8406415 84,17.1257274 C84,18.4586548 83.7877897,19.6613209 83.3638357,20.7346732 C82.9384823,21.8084991 82.3335667,22.7369062 81.5462897,23.5203681 L83.7686677,26.1772229 L83.7686677,27 L80.9446387,27 L79.393405,25.0726079 C78.8533183,25.3231831 78.2740543,25.5188117 77.6574787,25.6599675 C77.03997,25.8011233 76.3762883,25.8717012 75.6669,25.8717012 C74.3857097,25.8717012 73.232312,25.6557044 72.2062403,25.225132 C71.1797023,24.7940858 70.3075417,24.1906212 69.5902243,23.4147381 C68.8724407,22.6388551 68.3169627,21.7147111 67.923791,20.6404114 C67.5301527,19.5670591 67.3333333,18.3956557 67.3333333,17.1257274 C67.3333333,15.8406415 67.5301527,14.6616592 67.923791,13.5873596 C68.3169627,12.514481 68.8761717,11.5893896 69.6018843,10.8135066 C70.326664,10.0376235 71.202556,9.43036947 72.2290937,8.9912708 C73.2556317,8.5531195 74.3936383,8.33333333 75.64358,8.33333333" id="Fill-11" fill="#FFFFFF" fill-rule="nonzero"></path>
                    <path d="M95.3333333,23.2343188 C96.5175683,23.2343188 97.4401377,22.8608069 98.101506,22.1128314 C98.7624093,21.3648558 99.093326,20.2195778 99.093326,18.6765215 L99.093326,8.33333333 L102,8.33333333 L102,18.7474174 C102,19.9754866 101.846161,21.0260781 101.538483,21.9001437 C101.23034,22.7737334 100.792526,23.4903053 100.223648,24.0493837 C99.6547687,24.6084621 98.9548243,25.0176599 98.1247443,25.2774529 C97.2941997,25.537246 96.3637293,25.6666667 95.3333333,25.6666667 C94.287135,25.6666667 93.3529467,25.537246 92.5307677,25.2774529 C91.7076593,25.0176599 91.011898,24.6084621 90.443019,24.0493837 C89.8741403,23.4903053 89.4358617,22.7737334 89.127719,21.9001437 C88.820041,21.0260781 88.6666667,19.9754866 88.6666667,18.7474174 L88.6666667,8.33333333 L91.5733407,8.33333333 L91.5733407,18.6765215 C91.5733407,20.2195778 91.9037927,21.3648558 92.5651607,22.1128314 C93.226529,22.8608069 94.1490983,23.2343188 95.3333333,23.2343188" id="Fill-13" fill="#FFFFFF" fill-rule="nonzero"></path>
                    <path d="M110.327341,18.0677405 L115.889204,18.0677405 L114.973811,15.42154 C114.613517,14.3851349 114.32462,13.5414188 114.105701,12.8917948 C113.886309,12.2417031 113.690559,11.6692483 113.518923,11.1739627 L112.791715,11.1739627 C112.697622,11.4368055 112.60353,11.700116 112.50991,11.9629588 C112.415818,12.2262693 112.310377,12.5204475 112.193116,12.8450256 C112.075382,13.1700715 111.946773,13.5414188 111.805871,13.9595353 C111.664968,14.3767164 111.492859,14.864519 111.289544,15.42154 L110.327341,18.0677405 Z M105,24.5209526 L110.98457,8.66666667 L115.42016,8.66666667 L121.333333,24.5209526 L121.333333,25.3333333 L118.423556,25.3333333 L116.734146,20.5745688 L109.435589,20.5745688 L107.746179,25.3333333 L105,25.3333333 L105,24.5209526 Z" id="Fill-15" fill="#FFFFFF" fill-rule="nonzero"></path>
                    <path d="M127.881832,16.2804359 L130.415259,16.2804359 C131.531184,16.2804359 132.410157,16.0769842 133.053113,15.6710163 C133.69607,15.2645807 134.018251,14.6013751 134.018251,13.680464 C134.018251,12.745054 133.692324,12.093541 133.041406,11.7254572 C132.390957,11.3578411 131.515731,11.1735653 130.415259,11.1735653 L127.881832,11.1735653 L127.881832,16.2804359 Z M137.666667,25.3333333 L134.854141,25.3333333 L129.764341,18.7873345 L127.881832,18.7873345 L127.881832,25.3333333 L125,25.3333333 L125,8.66666667 L130.415259,8.66666667 C131.267071,8.66666667 132.077206,8.72466207 132.84379,8.8406529 C133.610842,8.95664373 134.304374,9.2237033 134.924384,9.64136383 C136.240736,10.5075534 136.900083,11.8152565 136.900083,13.56307 C136.900083,14.3216875 136.787694,14.9830223 136.562448,15.5480099 C136.337671,16.1125298 136.039373,16.5919274 135.668022,16.9866704 C135.295735,17.3814134 134.865848,17.702259 134.378363,17.9492072 C133.88994,18.1970909 133.382319,18.3827697 132.855497,18.5062439 L137.666667,24.5204621 L137.666667,25.3333333 Z" id="Fill-17" fill="#FFFFFF" fill-rule="nonzero"></path>
                    <polygon id="Fill-19" fill="#FFFFFF" fill-rule="nonzero" points="141.333333 8.66666667 152.169932 8.66666667 152.169932 11.2197965 144.199898 11.2197965 144.199898 15.5838291 151.610706 15.5838291 151.610706 18.0906574 144.199898 18.0906574 144.199898 22.7797358 152.333333 22.7797358 152.333333 25.3333333 141.333333 25.3333333"></polygon>
                    <path d="M158.82539,20.4701684 C158.994745,21.3205477 159.392707,21.9862896 160.017876,22.4659663 C160.643045,22.9465948 161.465095,23.1864332 162.484027,23.1864332 C163.487096,23.1864332 164.262492,22.9504018 164.811148,22.4778631 C165.35887,22.0058002 165.633198,21.3838384 165.633198,20.6119776 C165.633198,20.2341369 165.559951,19.9153042 165.41299,19.6554792 C165.266495,19.3956543 165.061682,19.1753266 164.799484,18.9940202 C164.53682,18.8136655 164.212572,18.6594837 163.827207,18.5338541 C163.440909,18.4077486 163.008422,18.2740292 162.529748,18.13222 L161.279877,17.7781728 C160.539006,17.5735488 159.874647,17.3256207 159.288201,17.0339125 C158.701289,16.7426801 158.199754,16.4000539 157.783597,16.0065095 C157.366507,15.6129652 157.049724,15.160413 156.833714,14.6483771 C156.617704,14.1368171 156.509466,13.5419798 156.509466,12.8652929 C156.509466,12.1567228 156.648496,11.5033535 156.926556,10.9047093 C157.20415,10.3070168 157.597913,9.79450507 158.107379,9.3695533 C158.616845,8.94460157 159.234082,8.6100651 159.960025,8.365468 C160.685034,8.12229853 161.503352,8 162.414045,8 C164.127661,8 165.48577,8.413055 166.489773,9.23964087 C167.492842,10.0667026 168.079754,11.172624 168.249576,12.5583569 L165.470841,12.7943883 C165.301019,12.0858182 164.961375,11.5347609 164.452376,11.1412166 C163.94291,10.7476723 163.232363,10.5506622 162.32167,10.5506622 C161.47256,10.5506622 160.808668,10.7514792 160.33046,11.1531134 C159.851786,11.5547475 159.612449,12.0705903 159.612449,12.7001661 C159.612449,13.062303 159.681964,13.3649562 159.820994,13.6090774 C159.960025,13.8536745 160.160172,14.0659125 160.422836,14.246743 C160.685034,14.4280494 161.005549,14.5893692 161.383917,14.7307026 C161.762284,14.8725118 162.190571,15.0228866 162.668778,15.1799237 L163.850068,15.5577643 C164.590939,15.7937957 165.258564,16.0417239 165.85294,16.3015488 C166.446851,16.5613737 166.953051,16.8725926 167.369208,17.2347295 C167.786298,17.5968664 168.106814,18.029908 168.330755,18.5338541 C168.55423,19.0378002 168.666667,19.6597621 168.666667,20.3997396 C168.666667,21.1873042 168.512241,21.907771 168.203389,22.5606644 C167.89407,23.2145095 167.462517,23.7693737 166.906397,24.2257329 C166.350743,24.6825679 165.69105,25.0370909 164.926851,25.2883502 C164.162185,25.5400853 163.317274,25.6666667 162.391185,25.6666667 C160.678036,25.6666667 159.249478,25.2574186 158.107379,24.4384467 C156.964813,23.6194747 156.262664,22.3836409 156,20.7299933 L158.82539,20.4701684 Z" id="Fill-21" fill="#FFFFFF" fill-rule="nonzero"></path>
                    <path d="M175.953373,16.4195944 L178.788688,16.4195944 C179.308528,16.4195944 179.785047,16.3775022 180.218247,16.2928499 C180.65097,16.2086654 181.029425,16.0669548 181.352182,15.8672503 C181.675416,15.6680136 181.927243,15.3995585 182.108615,15.061885 C182.289512,14.7246792 182.37996,14.3103042 182.37996,13.8192277 C182.37996,13.3131852 182.289512,12.8880533 182.108615,12.5428967 C181.927243,12.1977401 181.678748,11.9255435 181.364083,11.725839 C181.048942,11.5261346 180.674772,11.384424 180.242049,11.3002395 C179.808373,11.2160549 179.339946,11.173495 178.836293,11.173495 L175.953373,11.173495 L175.953373,16.4195944 Z M173,8.66666667 L179.190469,8.66666667 C180.340114,8.66666667 181.305054,8.79808807 182.084813,9.0613986 C182.864572,9.3242414 183.494378,9.68763797 183.975181,10.1525237 C184.455033,10.616474 184.802069,11.1618027 185.014384,11.7889774 C185.2267,12.4152168 185.333333,13.0924346 185.333333,13.8196954 C185.333333,14.6867961 185.187664,15.4407154 184.896325,16.0828563 C184.604987,16.7249972 184.183688,17.2548921 183.63243,17.6730086 C183.080696,18.0906574 182.411379,18.4040109 181.624003,18.6130692 C180.836151,18.8221274 179.946426,18.9264227 178.954351,18.9264227 L175.953373,18.9264227 L175.953373,25.3333333 L173,25.3333333 L173,8.66666667 Z" id="Fill-23" fill="#FFFFFF" fill-rule="nonzero"></path>
                    <path d="M191.327341,18.0677405 L196.889204,18.0677405 L195.973811,15.42154 C195.613517,14.3851349 195.324147,13.5414188 195.105228,12.8917948 C194.886309,12.2417031 194.690559,11.6692483 194.518923,11.1739627 L193.791242,11.1739627 C193.697622,11.4368055 193.60353,11.700116 193.509437,11.9629588 C193.415818,12.2262693 193.309904,12.5204475 193.192643,12.8450256 C193.075382,13.1700715 192.946773,13.5414188 192.805871,13.9595353 C192.664968,14.3767164 192.492859,14.864519 192.289544,15.42154 L191.327341,18.0677405 Z M186,24.5209526 L191.98457,8.66666667 L196.419687,8.66666667 L202.333333,24.5209526 L202.333333,25.3333333 L199.423556,25.3333333 L197.734146,20.5745688 L190.435589,20.5745688 L188.745706,25.3333333 L186,25.3333333 L186,24.5209526 Z" id="Fill-25" fill="#FFFFFF" fill-rule="nonzero"></path>
                    <path d="M220,20.9267542 C219.735222,21.5774681 219.387995,22.1897946 218.959733,22.7642017 C218.530529,23.3386089 218.01228,23.8418589 217.404515,24.2716109 C216.79675,24.701363 216.090989,25.0412323 215.288175,25.2912188 C214.48536,25.5412053 213.593029,25.6666667 212.610712,25.6666667 C211.363616,25.6666667 210.229593,25.4494499 209.208643,25.0154846 C208.187692,24.5824556 207.316092,23.9818326 206.594312,23.2154882 C205.872533,22.4482076 205.31518,21.5348674 204.922253,20.4735951 C204.529326,19.412791 204.333333,18.2625722 204.333333,17.0229388 C204.333333,15.7842417 204.529326,14.6340229 204.922253,13.5727507 C205.31518,12.5119466 205.875831,11.593925 206.60562,10.8191541 C207.335408,10.0453195 208.211249,9.43673813 209.2322,8.99575073 C210.25315,8.55382703 211.394711,8.33333333 212.657825,8.33333333 C214.496667,8.33333333 216.036809,8.75980843 217.275895,9.6113542 C218.515452,10.4628999 219.392235,11.593925 219.906715,13.003493 L216.937149,13.583986 C216.531501,12.7324403 215.966138,12.0620645 215.241532,11.5742631 C214.516455,11.0864618 213.639672,10.8425611 212.610712,10.8425611 C211.784811,10.8425611 211.047956,11.0007922 210.401087,11.3172545 C209.754218,11.6337168 209.208643,12.0695547 208.764362,12.6252363 C208.320081,13.1804498 207.980864,13.8363132 207.747181,14.5928267 C207.513498,15.348872 207.396656,16.1587533 207.396656,17.0229388 C207.396656,17.902573 207.517267,18.7166676 207.758959,19.4652226 C208.00018,20.2142458 208.351176,20.8616828 208.811005,21.4098741 C209.270833,21.9575974 209.828186,22.3854769 210.483064,22.6939808 C211.137471,23.0029529 211.886106,23.1574389 212.727553,23.1574389 C213.819174,23.1574389 214.719043,22.8938764 215.428573,22.3672194 C216.138103,21.8405625 216.687447,21.1978069 217.077076,20.4384847 L220,20.9267542 Z" id="Fill-27" fill="#FFFFFF" fill-rule="nonzero"></path>
                    <g id="Group-31" transform="translate(223.666667, 8.333333)">
                        <g id="Fill-29-Clipped">
                            <mask id="mask-2" fill="white">
                                <use xlink:href="#path-1"></use>
                            </mask>
                            <g id="path-1"></g>
                            <polygon id="Fill-29" fill="#FFFFFF" fill-rule="nonzero" mask="url(#mask-2)" points="0.147002778 0.132127778 11.0454194 0.132127778 11.0454194 2.70998889 3.02991944 2.70998889 3.02991944 7.11629443 10.4830028 7.11629443 10.4830028 9.64740557 3.02991944 9.64740557 3.02991944 14.3819056 11.2097528 14.3819056 11.2097528 16.9602389 0.147002778 16.9602389"></polygon>
                        </g>
                    </g>
                </g>
            </g>
        </g>
    </g>
</svg>