<?xml version="1.0" encoding="UTF-8"?>
<svg width="135px" height="34px" viewBox="0 0 135 34" version="1.1" xmlns="http://www.w3.org/2000/svg" xmlns:xlink="http://www.w3.org/1999/xlink">
    <!-- Generator: Sketch 62 (91390) - https://sketch.com -->
    <title>webflow</title>
    <desc>Created with Sketch.</desc>
    <g id="Page-1" stroke="none" stroke-width="1" fill="none" fill-rule="evenodd">
        <g id="Outreach-Page" transform="translate(-982.000000, -2071.000000)" fill="#FFFFFF" fill-rule="nonzero">
            <g id="webflow" transform="translate(982.000000, 2071.000000)">
                <path d="M43.5,13.25 C43.5,10.8333333 41.15,8.26666667 37.0833333,8.26666667 C32.5166667,8.26666667 27.5,11.6166667 26.7333333,18.3 C25.95,25.05 30.15,28.05 34.3833333,28.05 C38.6166667,28.05 40.8333333,26.4 43.1,24.2 C41.15,21.75 38.6333333,22.8833333 38.15,23.1333333 C37.6166667,23.4 36.9333333,23.7666667 35.5333333,23.7666667 C33.9,23.7666667 32.2333333,23.0333333 32.2333333,19.9833333 C42.7,18.95 43.5,15.6666667 43.5,13.25 Z M38.3166667,13.65 C38.25,14.4 37.95,15.6833333 32.65,16.4 C33.7666667,12.4333333 35.9,12.1333333 36.8833333,12.1333333 C37.8,12.1333333 38.3833333,12.85 38.3166667,13.65 Z M20.5833333,14.3 C20.5833333,14.3 18.3333333,21.3666667 18.15,21.95 C18.0833333,21.35 16.4333333,8.66666667 16.4333333,8.66666667 C12.6,8.66666667 10.55,11.4 9.46666667,14.2833333 C9.46666667,14.2833333 6.73333333,21.3666667 6.5,21.9666667 C6.48333333,21.4166667 6.08333333,14.3666667 6.08333333,14.3666667 C5.85,10.8333333 2.61666667,8.68333333 0,8.68333333 L3.16666667,27.9 C7.18333333,27.8833333 9.35,25.1666667 10.4833333,22.2833333 C10.4833333,22.2833333 12.9,16.0333333 13,15.75 C13.0166667,16.0166667 14.7333333,27.9 14.7333333,27.9 C18.7666667,27.9 20.9333333,25.35 22.1,22.5666667 L27.75,8.68333333 C23.7666667,8.68333333 21.6666667,11.4 20.5833333,14.3 Z M58.3,8.23333333 C55.8166667,8.23333333 53.9166667,9.58333333 52.3166667,11.5666667 L52.3166667,11.55 L53.75,0 C50.45,0 47.7666667,2.86666667 47.25,7.13333333 L44.75,27.75 C46.65,27.75 48.6666667,27.2 49.75,25.8 C50.7166667,27.05 52.1666667,28.05 54.3166667,28.05 C59.8833333,28.05 63.7,21.5833333 63.7,15.5166667 C63.6666667,9.98333333 60.9833333,8.23333333 58.3,8.23333333 Z M57.7833333,18.15 C57.2,21.5333333 55.3166667,23.8333333 53.5,23.8333333 C51.6666667,23.8333333 50.8833333,23.0166667 50.8833333,23.0166667 C51.2333333,20.05 51.45,18.2333333 52.1166667,16.6666667 C52.7833333,15.1 54.3666667,12.6 56.0166667,12.6 C57.6333333,12.6 58.3666667,14.75 57.7833333,18.15 Z M77.6,8.68333333 L73.7166667,8.68333333 L73.7333333,8.48333333 C74,5.95 74.6,4.61666667 76.5833333,4.4 C77.9333333,4.26666667 78.5333333,3.56666667 78.6833333,2.8 C78.8,2.2 79.1666667,0.116666667 79.1666667,0.116666667 C71.3666667,0.0666666667 68.9166667,3.43333333 68.2833333,8.56666667 L68.2666667,8.68333333 L68.1833333,8.68333333 C66.9166667,8.68333333 65.5166667,10.1166667 65.2833333,11.9333333 L65.2,12.6 L67.8,12.6 L65.6166667,30.6333333 L64.95,33.8666667 C65.0333333,33.8666667 65.1333333,33.8833333 65.2166667,33.8833333 C68.8666667,33.75 71.2,30.8666667 71.7166667,26.6833333 L73.4166667,12.6 L74.6333333,12.6 C75.8333333,12.6 77.2333333,11.4 77.4833333,9.4 L77.6,8.68333333 Z M97.8,8.35 C93.3166667,8.35 89.0833333,11.65 87.7833333,16.8333333 C86.4833333,22.0166667 88.45,28.15 95.05,28.15 C101.633333,28.15 105.433333,21.7666667 105.433333,16.45 C105.433333,11.1666667 101.85,8.35 97.8,8.35 Z M99.6166667,17.9833333 C99.3833333,20.3333333 98.35,23.9 95.5166667,23.9 C92.6666667,23.9 93.0666667,19.7333333 93.35,17.75 C93.65,15.6333333 94.8333333,12.6166667 97.3833333,12.6166667 C99.6666667,12.6166667 99.8833333,15.3333333 99.6166667,17.9833333 Z M127.583333,14.3 C127.583333,14.3 125.333333,21.3666667 125.15,21.95 C125.083333,21.35 123.433333,8.66666667 123.433333,8.66666667 C119.6,8.66666667 117.55,11.4 116.466667,14.2833333 C116.466667,14.2833333 113.733333,21.3666667 113.5,21.9666667 C113.483333,21.4166667 113.083333,14.3666667 113.083333,14.3666667 C112.85,10.8333333 109.616667,8.68333333 107,8.68333333 L110.15,27.9 C114.166667,27.8833333 116.333333,25.1666667 117.466667,22.2833333 C117.466667,22.2833333 119.883333,16.0333333 119.966667,15.75 C120,16.0166667 121.7,27.9 121.7,27.9 C125.733333,27.9 127.9,25.35 129.066667,22.5666667 L134.716667,8.68333333 C130.75,8.68333333 128.65,11.4 127.583333,14.3 Z M81.2666667,0.116666667 L78,26.4666667 L78,26.4666667 L77.3333333,29.7166667 C77.4166667,29.7166667 77.5166667,29.7333333 77.6,29.7333333 L77.6,29.7333333 C81.1166667,29.6833333 83.6166667,26.6 84.0833333,22.7166667 L85.9666667,7.6 C86.5333333,2.98333333 83.7833333,0.116666667 81.2666667,0.116666667 Z" id="Shape"></path>
            </g>
        </g>
    </g>
</svg>