<?xml version="1.0" encoding="UTF-8"?>
<svg width="112px" height="34px" viewBox="0 0 112 34" version="1.1" xmlns="http://www.w3.org/2000/svg" xmlns:xlink="http://www.w3.org/1999/xlink">
    <!-- Generator: Sketch 62 (91390) - https://sketch.com -->
    <title>weebly</title>
    <desc>Created with Sketch.</desc>
    <g id="Page-1" stroke="none" stroke-width="1" fill="none" fill-rule="evenodd">
        <g id="Outreach-Page" transform="translate(-499.000000, -2146.000000)" fill="#FFFFFF" fill-rule="nonzero">
            <g id="weebly" transform="translate(499.000000, 2146.000000)">
                <path d="M22.7753425,25.9284932 L17.4936986,25.9284932 L14.1542466,14.6339726 L13.6884932,14.6339726 C12.5753425,18.36 11.4668493,22.0860274 10.330411,25.8679452 L4.96958904,25.8679452 C3.33479452,19.8969863 1.7,13.8934247 0,7.6709589 L4.83452055,7.6709589 C5.73342466,11.3131507 6.65561644,15.0345205 7.57780822,18.7605479 L8.04356164,18.830411 L11.420274,7.57780822 L16.4550685,7.57780822 C17.5635616,11.3038356 18.6736073,15.0127854 19.7852055,18.7046575 L20.2789041,18.7046575 C21.210411,15.0112329 22.0906849,11.3224658 23.0128767,7.57780822 L27.7961644,7.57780822 C26.0821918,13.7909589 24.4380822,19.8550685 22.7753425,25.9284932 Z" id="Path"></path>
                <path d="M66.7890411,0.111780822 L71.1391781,0.111780822 L71.1391781,9.0169863 C76.6769863,6.25041096 80.6452055,6.74410959 83.3605479,10.3723288 C86.1550685,14.0983562 85.8336986,20.6468493 82.7224658,23.9676712 C79.8487671,27.0416438 75.7780822,27.2605479 71.4372603,24.48 L70.8643836,25.9238356 L66.7890411,25.9238356 L66.7890411,0.111780822 Z M71.1531507,16.729863 C71.1205479,19.920274 72.6528767,22.1 75.1353425,22.3887671 C78.2652055,22.7567123 80.2586301,20.8331507 80.5520548,17.1863014 C80.7989041,13.9679452 78.8473973,11.2432877 76.1786301,11.080274 C73.230411,10.9032877 71.1857534,13.1994521 71.1531507,16.729863 Z" id="Shape"></path>
                <path d="M45.2060274,17.9128767 L32.2860274,17.9128767 C32.1835616,20.0041096 33.1383562,21.1731507 34.6939726,21.9369863 C36.7945205,22.9569863 39.1232877,22.4493151 41.9783562,20.2928767 L44.7449315,22.8545205 C41.1726027,26.7994521 35.3134247,27.6284932 31.1169863,24.9038356 C27.3909589,22.4958904 26.0775342,16.729863 28.1734247,12.1515068 C30.0364384,8.10876712 34.6334247,6.19452055 39.3887671,7.4939726 C43.5386301,8.62575342 45.8627397,12.5986301 45.2060274,17.9128767 Z M32.3838356,14.3358904 L40.9863014,14.3358904 C40.2317808,12.1468493 38.9136986,11.1175342 36.8410959,11.0756164 C34.7684932,11.0336986 33.1989041,11.9093151 32.3838356,14.3358904 Z" id="Shape"></path>
                <path d="M64.8189041,17.8849315 L51.9361644,17.8849315 C52.4484932,22.7520548 56.7986301,23.8046575 61.6843836,20.3208219 C62.5227397,21.0939726 63.4076712,21.899726 64.2832877,22.7008219 C61.54,26.5386301 55.6342466,27.6331507 51.2934247,25.2158904 C47.3112329,22.9989041 45.7043836,17.2980822 47.6884932,12.4775342 C49.4769863,8.17863014 54.2416438,6.11068493 59.1506849,7.51260274 C63.24,8.67232877 65.6712329,12.9386301 64.8189041,17.8849315 Z M60.7063014,14.3312329 C59.7375342,11.8720548 58.1772603,10.8939726 55.9369863,11.0989041 C54.0739726,11.2712329 52.6394521,12.1189041 52.0945205,14.3312329 L60.7063014,14.3312329 Z" id="Shape"></path>
                <path d="M101.67863,33.7857534 L97.3657534,33.7857534 C98.2972603,31.2380822 99.1915068,28.7928767 100.160274,26.0961644 L92.8572603,7.63369863 L97.9432877,7.63369863 C99.3405479,11.5460274 100.737808,15.4956164 102.409863,20.1158904 L106.871781,7.54054795 L111.710959,7.54054795 L101.67863,33.7857534 Z" id="Path"></path>
                <path d="M86.8769863,0 C87.8364384,0 88.670137,0 89.5084932,0 C90.0347945,0 90.5610959,0.0465753425 91.1805479,0.0745205479 L91.1805479,25.8586301 L86.8769863,25.8586301 L86.8769863,0 Z" id="Path"></path>
            </g>
        </g>
    </g>
</svg>