<?xml version="1.0" encoding="UTF-8"?>
<svg width="85px" height="34px" viewBox="0 0 85 34" version="1.1" xmlns="http://www.w3.org/2000/svg" xmlns:xlink="http://www.w3.org/1999/xlink">
    <!-- Generator: Sketch 62 (91390) - https://sketch.com -->
    <title>wix</title>
    <desc>Created with Sketch.</desc>
    <g id="Page-1" stroke="none" stroke-width="1" fill="none" fill-rule="evenodd">
        <g id="Outreach-Page" transform="translate(-651.000000, -2145.000000)" fill="#FFFFFF">
            <g id="wix" transform="translate(651.000000, 2145.000000)">
                <g id="WIX" transform="translate(0.000000, 0.216883)">
                    <path d="M48.6374722,0.636423018 C46.93275,1.53742302 46.3240556,3.02350635 46.3240556,7.13939524 C46.3240556,7.13939524 47.1764167,6.31111746 48.4429167,5.84833968 C49.3684722,5.5319508 50.1476389,5.02053413 50.6104167,4.67958968 C52.0473889,3.6322008 52.2424167,2.29250635 52.2424167,0.0277285731 C52.2424167,0.0277285731 49.9044444,-0.0454658713 48.6374722,0.636423018" id="Fill-3"></path>
                    <path d="M38.6518611,1.61061746 C37.2880833,2.82847857 36.8739444,4.75231191 36.8739444,4.75231191 L32.2952778,22.336923 L28.5203333,7.91856191 C28.1548333,6.40886746 27.4729444,4.48456191 26.4255556,3.21806191 C25.1104167,1.61061746 22.4069444,1.51333968 22.1146389,1.51333968 C21.8223333,1.51333968 19.0947778,1.61061746 17.7550833,3.24261746 C16.7076944,4.5332008 16.0258056,6.4329508 15.6607778,7.94311746 L11.8853611,22.3614786 L7.35533333,4.75231191 C7.35533333,4.75231191 6.96575,2.80392302 5.57741667,1.61061746 C3.33672222,-0.362326982 0,0.0518119064 0,0.0518119064 L8.69502778,33.0289786 C8.69502778,33.0289786 11.5689722,33.2480897 13.0054722,32.4930064 C14.8811389,31.5433675 15.8066944,30.7882841 16.9513611,26.2823397 C17.9741944,22.2882841 20.8235833,10.5488397 21.0918056,9.69647857 C21.2136389,9.28233968 21.3841111,8.28406191 22.1146389,8.28406191 C22.8697222,8.28406191 23.0156389,9.25825635 23.1374722,9.69647857 C23.4056944,10.5247564 26.2305278,22.2882841 27.2779167,26.2823397 C28.4225833,30.7637286 29.3240556,31.4947286 31.2238056,32.4930064 C32.6607778,33.2480897 35.5347222,33.0289786 35.5347222,33.0289786 L44.2292778,0.076367462 C44.2292778,0.076367462 40.8925556,-0.337771427 38.6518611,1.61061746 Z M52.2424167,5.43467302 C52.2424167,5.43467302 51.7064444,6.26247857 50.4645,6.99300635 C49.6607778,7.4317008 48.9056944,7.74808968 48.0774167,8.13767302 C46.7136389,8.79547857 46.3240556,9.55056191 46.3240556,10.670673 L46.3240556,33.0289786 C46.3240556,33.0289786 48.5401944,33.2967286 49.9526111,32.5907564 C51.8037222,31.6406452 52.2178611,30.7396452 52.2424167,26.6237564 L52.2424167,5.43467302 Z M73.9674722,16.6135897 L85,0.149561906 C85,0.149561906 80.3481389,-0.654160316 78.0347222,1.4647008 C76.5486389,2.80392302 74.8925556,5.21556191 74.8925556,5.21556191 L70.8498611,11.1093675 C70.63075,11.401673 70.4111667,11.7426175 69.9975,11.7426175 C69.5833611,11.7426175 69.3156111,11.4257564 69.1446667,11.1093675 L65.0533333,5.23964524 C65.0533333,5.23964524 63.4213333,2.82847857 61.9116389,1.48878413 C59.6218333,-0.630076982 54.9458889,0.17364524 54.9458889,0.17364524 L66.0029722,16.5890341 L54.9454167,32.9803397 C54.9454167,32.9803397 59.8168611,33.6135897 62.1061944,31.4947286 C63.5918056,30.1550341 65.0287778,27.9388952 65.0287778,27.9388952 L69.0714722,22.069173 C69.2910556,21.7768675 69.5101667,21.435923 69.9243056,21.435923 C70.3384444,21.435923 70.6061944,21.7523119 70.7766667,22.069173 L74.8193611,27.9388952 C74.8193611,27.9388952 76.3295278,30.1063952 77.7905833,31.4947286 C80.0803889,33.6135897 84.8781667,32.9803397 84.8781667,32.9803397 L73.9674722,16.6135897 L73.9674722,16.6135897 Z" id="Fill-4"></path>
                </g>
            </g>
        </g>
    </g>
</svg>