<?xml version="1.0" encoding="UTF-8"?>
<svg width="165px" height="34px" viewBox="0 0 165 34" version="1.1" xmlns="http://www.w3.org/2000/svg" xmlns:xlink="http://www.w3.org/1999/xlink">
    <!-- Generator: Sketch 62 (91390) - https://sketch.com -->
    <title>wordpress</title>
    <desc>Created with Sketch.</desc>
    <g id="Page-1" stroke="none" stroke-width="1" fill="none" fill-rule="evenodd">
        <g id="Outreach-Page" transform="translate(-776.000000, -2146.000000)" fill="#FFFFFF">
            <g id="wordpress" transform="translate(776.000000, 2146.000000)">
                <path d="M93.9146583,23.8465233 L93.6531417,23.8465233 C92.3085833,23.8465233 92.1218667,23.5103483 92.1218667,21.792215 L92.1218667,13.6873233 L93.9146583,13.6873233 C97.798875,13.6873233 98.508625,16.525615 98.508625,18.7293817 C98.508625,21.0078067 97.798875,23.8465233 93.9146583,23.8465233 L93.9146583,23.8465233 Z M78.1531083,18.65444 L78.1531083,13.6873233 L79.6842417,13.6873233 C81.364975,13.6873233 82.1122667,14.8448817 82.1122667,16.18944 C82.1122667,17.4968817 81.364975,18.65444 79.6842417,18.65444 L78.1531083,18.65444 Z M93.8026,12.5668817 L87.116925,12.5668817 L87.116925,13.2762067 C89.20835,13.2762067 89.5443833,13.72444 89.5443833,16.37644 L89.5443833,21.1574067 C89.5443833,23.8091233 89.20835,24.2947567 87.116925,24.2947567 C85.5111333,24.07064 84.4278083,23.21129 82.93365,21.5680983 L81.2159417,19.70079 C83.5313417,19.2896733 84.7638417,17.8330567 84.7638417,16.18944 C84.7638417,14.1355567 83.0085917,12.5668817 79.7217833,12.5668817 L73.148025,12.5668817 L73.148025,13.2762067 C75.23945,13.2762067 75.575625,13.72444 75.575625,16.37644 L75.575625,21.1574067 C75.575625,23.8091233 75.23945,24.2947567 73.148025,24.2947567 L73.148025,25.0040817 L80.5807083,25.0040817 L80.5807083,24.2947567 C78.4892833,24.2947567 78.1531083,23.8091233 78.1531083,21.1574067 L78.1531083,19.8128483 L78.7879167,19.8128483 L82.93365,25.0040817 L93.8026,25.0040817 C99.1438583,25.0040817 101.459258,22.16579 101.459258,18.7664983 C101.459258,15.3680567 99.1438583,12.5668817 93.8026,12.5668817 L93.8026,12.5668817 Z" id="Fill-1"></path>
                <path d="M52.3448133,20.0369225 L54.9218717,12.4168142 C55.6691633,10.2134725 55.3329883,9.57866417 52.942505,9.57866417 L52.942505,8.8313725 L59.9644967,8.8313725 L59.9644967,9.57866417 C57.6114133,9.57866417 57.0512633,10.1388142 56.1173967,12.8654725 L51.85918,25.6392725 L51.37383,25.6392725 L47.5638467,13.9485142 L43.6797717,25.6392725 L43.1939967,25.6392725 L39.0482633,12.8654725 C38.1519383,10.1388142 37.5542467,9.57866417 35.38788,9.57866417 L35.38788,8.8313725 L43.6797717,8.8313725 L43.6797717,9.57866417 C41.4758633,9.57866417 40.8781717,10.1014142 41.6628633,12.4168142 L44.16498,20.0369225 L47.9374217,8.8313725 L48.6473133,8.8313725 L52.3448133,20.0369225 Z" id="Fill-3"></path>
                <path d="M65.04319,13.2391183 C61.6072067,13.2391183 60.4118233,16.3389267 60.4118233,18.7665267 C60.4118233,21.2319517 61.6072067,24.2946433 65.04319,24.2946433 C68.51714,24.2946433 69.7120983,21.2319517 69.7120983,18.7665267 C69.7120983,16.3389267 68.51714,13.2391183 65.04319,13.2391183 M65.04319,25.4897433 C60.9349983,25.4897433 57.5731067,22.4644517 57.5731067,18.7665267 C57.5731067,15.1064267 60.9349983,12.08071 65.04319,12.08071 C69.1519483,12.08071 72.5132733,15.1064267 72.5132733,18.7665267 C72.5132733,22.4644517 69.1519483,25.4897433 65.04319,25.4897433" id="Fill-5"></path>
                <path d="M109.862401,10.1759308 L107.733576,10.1759308 L107.733576,16.6750308 L109.862401,16.6750308 C111.954251,16.6750308 112.925093,15.2185558 112.925093,13.4631642 C112.925093,11.6705142 111.954251,10.1759308 109.862401,10.1759308 M110.684209,24.2571725 L110.684209,25.0040392 L102.131226,25.0040392 L102.131226,24.2571725 C104.633768,24.2571725 105.081859,23.6223642 105.081859,19.8870392 L105.081859,13.9113975 C105.081859,10.1759308 104.633768,9.57866417 102.131226,9.57866417 L102.131226,8.8313725 L109.862401,8.8313725 C113.709501,8.8313725 115.838893,10.8111642 115.838893,13.4631642 C115.838893,16.0403642 113.709501,18.0571308 109.862401,18.0571308 L107.733576,18.0571308 L107.733576,19.8870392 C107.733576,23.6223642 108.181668,24.2571725 110.684209,24.2571725" id="Fill-7"></path>
                <path d="M121.702773,18.65444 L121.702773,13.6873233 L123.233907,13.6873233 C124.91464,13.6873233 125.661932,14.8448817 125.661932,16.18944 C125.661932,17.4968817 124.91464,18.65444 123.233907,18.65444 L121.702773,18.65444 Z M141.497573,21.4935817 L141.310998,22.16579 C140.974823,23.39829 140.563707,23.8465233 137.912132,23.8465233 L137.388957,23.8465233 C135.44699,23.8465233 135.110957,23.39829 135.110957,20.74629 L135.110957,19.02844 C138.024048,19.02844 138.248165,19.2896733 138.248165,21.2319233 L138.958057,21.2319233 L138.958057,15.66669 L138.248165,15.66669 C138.248165,17.60894 138.024048,17.8700317 135.110957,17.8700317 L135.110957,13.6873233 L137.16484,13.6873233 C139.81684,13.6873233 140.227532,14.1355567 140.563707,15.3680567 L140.750707,16.0773817 L141.347973,16.0773817 L141.086882,12.5668817 L130.105873,12.5668817 L130.105873,13.2762067 C132.197298,13.2762067 132.533332,13.7242983 132.533332,16.37644 L132.533332,21.1574067 C132.533332,23.583165 132.247732,24.194315 130.598873,24.2812983 C129.031473,24.042165 127.955373,23.1872067 126.483315,21.5680983 L124.76504,19.70079 C127.081007,19.2896733 128.313507,17.8330567 128.313507,16.18944 C128.313507,14.1355567 126.558257,12.5668817 123.271448,12.5668817 L116.69769,12.5668817 L116.69769,13.2762067 C118.789115,13.2762067 119.12529,13.7242983 119.12529,16.37644 L119.12529,21.1574067 C119.12529,23.8089817 118.789115,24.2947567 116.69769,24.2947567 L116.69769,25.0040817 L124.130232,25.0040817 L124.130232,24.2947567 C122.038948,24.2947567 121.702773,23.8089817 121.702773,21.1574067 L121.702773,19.8128483 L122.337582,19.8128483 L126.483315,25.0040817 L141.833748,25.0040817 L142.057723,21.4935817 L141.497573,21.4935817 Z" id="Fill-9"></path>
                <path d="M149.079673,25.4897575 C147.585514,25.4897575 146.278073,24.7053492 145.717923,24.2197158 C145.531206,24.4067158 145.195173,24.9670075 145.120514,25.4897575 L144.410764,25.4897575 L144.410764,20.3356408 L145.157631,20.3356408 C145.456689,22.8006408 147.174539,24.2572575 149.378306,24.2572575 C150.573406,24.2572575 151.544814,23.5849075 151.544814,22.4644658 C151.544814,21.4934825 150.685464,20.7461908 149.154189,20.0368658 L147.025364,19.0284825 C145.531206,18.3183075 144.410764,17.0858075 144.410764,15.4426158 C144.410764,13.6498242 146.091498,12.1186908 148.407464,12.1186908 C149.639964,12.1186908 150.685464,12.5669242 151.320698,13.0895325 C151.507272,12.9400742 151.693848,12.5289575 151.806331,12.0807242 L152.515656,12.0807242 L152.515656,16.4885408 L151.731389,16.4885408 C151.469731,14.7328658 150.498889,13.2762492 148.519523,13.2762492 C147.473598,13.2762492 146.502189,13.8739408 146.502189,14.8078075 C146.502189,15.7786492 147.286598,16.3015408 149.079673,17.1233492 L151.133556,18.1317325 C152.926772,18.9905158 153.636098,20.3730408 153.636098,21.4934825 C153.636098,23.8465658 151.581789,25.4897575 149.079673,25.4897575" id="Fill-11"></path>
                <path d="M160.373382,25.4897575 C158.879223,25.4897575 157.571782,24.7053492 157.011632,24.2197158 C156.824915,24.4067158 156.48874,24.9670075 156.414223,25.4897575 L155.704473,25.4897575 L155.704473,20.3356408 L156.45134,20.3356408 C156.750398,22.8006408 158.468107,24.2572575 160.672015,24.2572575 C161.867115,24.2572575 162.838382,23.5849075 162.838382,22.4644658 C162.838382,21.4934825 161.979032,20.7461908 160.447898,20.0368658 L158.319073,19.0284825 C156.824915,18.3183075 155.704473,17.0858075 155.704473,15.4426158 C155.704473,13.6498242 157.385207,12.1186908 159.701173,12.1186908 C160.933673,12.1186908 161.979032,12.5669242 162.614265,13.0895325 C162.800982,12.9400742 162.987557,12.5289575 163.099615,12.0807242 L163.809365,12.0807242 L163.809365,16.4885408 L163.024957,16.4885408 C162.76344,14.7328658 161.792457,13.2762492 159.81309,13.2762492 C158.767307,13.2762492 157.795898,13.8739408 157.795898,14.8078075 C157.795898,15.7786492 158.580165,16.3015408 160.373382,17.1233492 L162.427265,18.1317325 C164.220482,18.9905158 164.929807,20.3730408 164.929807,21.4934825 C164.929807,23.8465658 162.875498,25.4897575 160.373382,25.4897575" id="Fill-13"></path>
                <path d="M16.8991192,0.0912475 C7.61641083,0.0912475 0.0912191667,7.61643917 0.0912191667,16.8991475 C0.0912191667,26.1818558 7.61641083,33.7070475 16.8991192,33.7070475 C26.1818275,33.7070475 33.7070192,26.1818558 33.7070192,16.8991475 C33.7070192,7.61643917 26.1818275,0.0912475 16.8991192,0.0912475 M16.8991192,1.0997725 C19.0324775,1.0997725 21.1015192,1.51726417 23.0487275,2.34091417 C23.9845775,2.73673083 24.8874192,3.22675583 25.7320358,3.79738917 C26.5688608,4.36278083 27.3558192,5.01203917 28.0709525,5.72731417 C28.7862275,6.4424475 29.4354858,7.22940583 30.0008775,8.06623083 C30.5715108,8.9108475 31.0615358,9.81368917 31.4573525,10.7495392 C32.2810025,12.6967475 32.6984942,14.7657892 32.6984942,16.8991475 C32.6984942,19.0325058 32.2810025,21.1015475 31.4573525,23.0487558 C31.0615358,23.9846058 30.5715108,24.8874475 30.0008775,25.7320642 C29.4354858,26.5688892 28.7862275,27.3558475 28.0709525,28.0709808 C27.3558192,28.7862558 26.5688608,29.4355142 25.7320358,30.0009058 C24.8874192,30.5715392 23.9845775,31.0615642 23.0487275,31.4573808 C21.1015192,32.2810308 19.0324775,32.6985225 16.8991192,32.6985225 C14.7657608,32.6985225 12.6967192,32.2810308 10.7496525,31.4573808 C9.81366083,31.0615642 8.91081917,30.5715392 8.0662025,30.0009058 C7.2293775,29.4355142 6.44241917,28.7862558 5.72728583,28.0709808 C5.01201083,27.3558475 4.3627525,26.5688892 3.79736083,25.7320642 C3.22686917,24.8874475 2.7367025,23.9846058 2.34088583,23.0487558 C1.51723583,21.1015475 1.09974417,19.0325058 1.09974417,16.8991475 C1.09974417,14.7657892 1.51723583,12.6967475 2.34088583,10.7495392 C2.7367025,9.81368917 3.22686917,8.9108475 3.79736083,8.06623083 C4.3627525,7.22940583 5.01201083,6.4424475 5.72728583,5.72731417 C6.44241917,5.01203917 7.2293775,4.36278083 8.0662025,3.79738917 C8.91081917,3.22675583 9.81366083,2.73673083 10.7496525,2.34091417 C12.6967192,1.51726417 14.7657608,1.0997725 16.8991192,1.0997725" id="Fill-15"></path>
                <path d="M29.1903742,10.1793025 C29.2504408,10.6254108 29.2845825,11.1039608 29.2845825,11.6194858 C29.2845825,13.0402608 29.0183908,14.6379775 28.2191075,16.6360442 L23.9411992,29.0049608 C28.1053492,26.5772192 30.9056742,22.0658442 30.9056742,16.8986942 C30.9056742,14.4634442 30.2834742,12.1741108 29.1903742,10.1793025 L29.1903742,10.1793025 Z M17.1451658,18.1238275 L12.9420575,30.3350692 C14.1973658,30.7042525 15.5243575,30.9057025 16.8990908,30.9057025 C18.5302408,30.9057025 20.0949492,30.6242108 21.5507158,30.1116608 C21.5131742,30.0517358 21.4786075,29.9881275 21.4501325,29.9185692 L17.1451658,18.1238275 Z M26.3547742,16.1922025 C26.3547742,14.4606108 25.7327158,13.2622525 25.2000492,12.3295192 C24.4900158,11.1752192 23.8241825,10.1987108 23.8241825,9.04441083 C23.8241825,7.75708583 24.8004075,6.55858583 26.1762742,6.55858583 C26.2384658,6.55858583 26.2972575,6.56609417 26.3576075,6.56991917 C23.8656908,4.2866775 20.5455908,2.89253583 16.8990908,2.89253583 C12.0054992,2.89253583 7.70081583,5.40343583 5.19614917,9.20548583 C5.52509917,9.2158275 5.83492417,9.22248583 6.09771583,9.22248583 C7.5624075,9.22248583 9.83077417,9.04441083 9.83077417,9.04441083 C10.5854325,9.00021083 10.6746825,10.1094608 9.9203075,10.1987108 C9.9203075,10.1987108 9.1612575,10.2875358 8.31734917,10.3317358 L13.4177742,25.5033858 L16.4834408,16.3106358 L14.3013492,10.3317358 C13.5466908,10.2875358 12.8322658,10.1987108 12.8322658,10.1987108 C12.0771825,10.1540858 12.1657242,9.00021083 12.9210908,9.04441083 C12.9210908,9.04441083 15.2336575,9.22248583 16.6099492,9.22248583 C18.0746408,9.22248583 20.3434325,9.04441083 20.3434325,9.04441083 C21.0983742,9.00021083 21.1871992,10.1094608 20.4325408,10.1987108 C20.4325408,10.1987108 19.6727825,10.2875358 18.8297242,10.3317358 L23.8914742,25.3879275 L25.3364742,20.8092608 C25.9783658,18.8083608 26.3547742,17.3907025 26.3547742,16.1922025 L26.3547742,16.1922025 Z M2.8925075,16.8986942 C2.8925075,22.4425358 6.11414917,27.2338442 10.7868825,29.5039108 L4.10531583,11.1984525 C3.3281325,12.9402442 2.8925075,14.8679025 2.8925075,16.8986942 L2.8925075,16.8986942 Z" id="Fill-17"></path>
            </g>
        </g>
    </g>
</svg>